<?xml version="1.0" encoding="utf-8"?>
<!-- Generator: Adobe Illustrator 25.0.1, SVG Export Plug-In . SVG Version: 6.00 Build 0)  -->
<svg version="1.0" id="Layer_1" xmlns="http://www.w3.org/2000/svg" xmlns:xlink="http://www.w3.org/1999/xlink" x="0px" y="0px"
	 viewBox="0 0 70.8 51.4" style="enable-background:new 0 0 70.8 51.4;" xml:space="preserve">
<style type="text/css">
	.st0{fill-rule:evenodd;clip-rule:evenodd;fill:#ED3524;}
	.st1{fill-rule:evenodd;clip-rule:evenodd;fill:#AE1E23;}
	.st2{clip-path:url(#SVGID_2_);}
	.st3{clip-path:url(#SVGID_2_);fill:none;}
</style>
<desc>Created with Sketch.</desc>
<g id="Page-1">
	<g id="R15_Mobile_Home" transform="translate(-172.000000, -62.000000)">
		<g id="Top">
			<g id="Group-20" transform="translate(17.000000, 61.000000)">
				<g id="akash-logo" transform="translate(155.000000, 1.000000)">
					<polygon id="Fill-11" class="st0" points="10.9,19.4 18.2,32 20.6,27.8 15.7,19.4 					"/>
					<polygon id="Fill-12" class="st1" points="10.9,28 13.4,32 18.4,32 15.9,28 					"/>
					<polygon id="Fill-13" class="st0" points="8.7,23.4 6.2,27.7 8.7,32 13.8,23.4 					"/>
				</g>
			</g>
		</g>
	</g>
</g>
<g>
	<defs>
		<rect id="SVGID_1_" x="5.8" y="19.2" width="59.3" height="13.1"/>
	</defs>
	<clipPath id="SVGID_2_">
		<use xlink:href="#SVGID_1_"  style="overflow:visible;"/>
	</clipPath>
	<path class="st2" d="M33.5,19.5V30h2.4v-2.6l1.9,2.6h2.9L38,26.3l2.6-3.6h-2.9l-1.8,2.5v-5.6H33.5z"/>
	<path class="st2" d="M65,24.9v5h-2.4v-5c0-0.5-0.4-0.9-1-0.9c-0.5,0-1,0.4-1,0.9v5h-2.4V19.5h2.4v3.4c0.5-0.3,1-0.5,1.6-0.5
		C63.8,22.3,65,23.5,65,24.9z"/>
	<path class="st2" d="M29.4,22.6V23c-0.6-0.4-1.4-0.6-2.2-0.6c-2.3,0-4.1,1.8-4.1,3.9c0,2.2,1.8,3.9,4.1,3.9c0.8,0,1.6-0.2,2.2-0.6
		v0.4h2.4v-7.3H29.4z M27.5,28.2c-1.2,0-2.1-0.9-2.1-2c0-1.1,0.9-2,2.1-2c1.2,0,2.1,0.9,2.1,2C29.6,27.3,28.6,28.2,27.5,28.2z"/>
	<path class="st2" d="M46.4,22.6V23c-0.6-0.4-1.4-0.6-2.2-0.6c-2.3,0-4.1,1.8-4.1,3.9s1.8,3.9,4.1,3.9c0.8,0,1.6-0.2,2.2-0.6v0.4
		h2.4v-7.3H46.4z M44.5,28.2c-1.2,0-2.1-0.9-2.1-2c0-1.1,0.9-2,2.1-2c1.2,0,2.1,0.9,2.1,2C46.6,27.3,45.7,28.2,44.5,28.2z"/>
	<path class="st2" d="M52.2,27.6c0,0.1,0.1,0.3,0.1,0.4c0.1,0.1,0.2,0.2,0.3,0.3c0.1,0.1,0.3,0.1,0.4,0.2c0.2,0,0.4,0.1,0.6,0.1
		c0.4,0,0.7-0.1,1-0.2c0.2-0.1,0.3-0.2,0.3-0.4c0-0.1,0-0.1,0-0.2c0,0-0.1-0.1-0.2-0.1c-0.1-0.1-0.3-0.1-0.5-0.2
		c-0.2-0.1-0.5-0.1-0.8-0.2c-0.4-0.1-0.9-0.2-1.2-0.3c-0.4-0.1-0.7-0.3-1-0.5c-0.3-0.2-0.5-0.4-0.7-0.7c-0.2-0.3-0.3-0.6-0.3-0.9
		c0-0.3,0.1-0.7,0.3-1c0.2-0.3,0.4-0.6,0.7-0.8c0.3-0.2,0.7-0.4,1.1-0.5c0.4-0.1,0.9-0.2,1.4-0.2c0.5,0,1,0.1,1.5,0.2
		c0.4,0.1,0.8,0.3,1.1,0.5c0.3,0.2,0.6,0.5,0.7,0.8c0.2,0.3,0.3,0.7,0.3,1h-2.4c0-0.2-0.1-0.4-0.3-0.5c-0.2-0.1-0.5-0.2-0.9-0.2
		c-0.4,0-0.7,0.1-0.9,0.2c-0.2,0.1-0.2,0.2-0.2,0.4c0,0.1,0,0.1,0,0.2c0,0,0.1,0.1,0.2,0.1c0.1,0.1,0.2,0.1,0.4,0.2
		c0.2,0.1,0.4,0.1,0.7,0.1c0.5,0.1,0.9,0.2,1.3,0.3c0.4,0.1,0.8,0.3,1.1,0.5c0.3,0.2,0.6,0.4,0.7,0.7c0.2,0.3,0.3,0.6,0.3,1
		c0,0.4-0.1,0.7-0.3,1c-0.2,0.3-0.4,0.6-0.8,0.8c-0.3,0.2-0.7,0.4-1.1,0.5c-0.4,0.1-0.9,0.2-1.5,0.2c-0.6,0-1.1-0.1-1.6-0.2
		c-0.5-0.1-0.8-0.3-1.2-0.6c-0.3-0.2-0.6-0.5-0.7-0.9c-0.2-0.3-0.3-0.6-0.3-1L52.2,27.6z"/>
	<path class="st3" d="M10.6,28.1l2.6,4.1h5.2l-2.6-4.1H10.6z"/>
</g>
</svg>
